<?xml version="1.0" standalone="no"?>
<!DOCTYPE svg PUBLIC "-//W3C//DTD SVG 20010904//EN"
 "http://www.w3.org/TR/2001/REC-SVG-20010904/DTD/svg10.dtd">
<svg version="1.0" xmlns="http://www.w3.org/2000/svg"
 width="512.000000pt" height="512.000000pt" viewBox="0 0 512.000000 512.000000"
 preserveAspectRatio="xMidYMid meet">

<g transform="translate(0.000000,512.000000) scale(0.100000,-0.100000)"
fill="#000000" stroke="none">
<path d="M989 5109 c-257 -21 -485 -127 -668 -311 -183 -182 -286 -404 -311
-663 -14 -153 -14 -3000 1 -3154 24 -256 129 -481 309 -661 180 -180 405 -285
661 -309 161 -15 3031 -15 3171 0 253 27 466 130 647 310 184 184 287 408 311
673 13 138 12 2968 0 3119 -15 177 -46 285 -125 434 -99 186 -252 339 -438
438 -149 79 -257 110 -434 125 -141 12 -2982 11 -3124 -1z m1761 -375 c350
-91 590 -402 590 -764 0 -400 -295 -731 -695 -782 -371 -47 -731 192 -847 562
-20 65 -23 95 -22 225 0 135 3 158 27 230 97 290 331 492 627 544 75 14 241 6
320 -15z m-1365 -1395 c216 -52 399 -197 504 -399 69 -132 86 -205 86 -365 0
-119 -4 -151 -23 -215 -84 -267 -275 -458 -542 -542 -64 -20 -96 -23 -215 -23
-162 1 -225 14 -352 76 -267 131 -434 402 -435 704 -1 139 18 219 84 352 161
331 529 501 893 412z m2750 -34 c148 -40 307 -146 408 -270 182 -226 221 -557
97 -824 -131 -280 -403 -451 -715 -451 -355 0 -647 220 -757 570 -19 64 -23
96 -23 215 0 119 4 151 23 215 91 291 317 498 613 560 65 13 283 4 354 -15z
m-1435 -1379 c286 -51 522 -258 617 -541 25 -73 27 -93 27 -235 0 -142 -2
-162 -27 -235 -123 -364 -480 -595 -846 -547 -270 36 -499 199 -612 437 -56
116 -79 217 -79 345 0 205 71 385 208 531 191 204 448 292 712 245z"/>
<path d="M2485 4619 c-229 -23 -419 -159 -521 -374 -167 -348 13 -768 383
-896 231 -79 488 -19 667 156 162 158 232 400 178 613 -84 330 -371 534 -707
501z m323 -534 c154 -270 221 -398 220 -415 l-3 -25 -465 0 -465 0 0 30 c0 21
69 150 224 418 192 334 227 388 245 385 16 -2 72 -92 244 -393z"/>
<path d="M2519 4198 c-24 -40 -89 -154 -146 -253 l-104 -180 287 -3 c158 -1
289 -1 291 2 3 3 -270 490 -282 504 -2 2 -23 -29 -46 -70z"/>
<path d="M1032 3210 c-117 -31 -206 -83 -297 -175 -209 -208 -254 -507 -118
-768 56 -107 173 -220 283 -274 165 -81 336 -93 504 -35 199 68 342 213 412
417 24 70 28 95 28 200 0 106 -3 129 -29 204 -112 328 -455 517 -783 431z
m533 -625 l0 -380 -369 -3 c-264 -2 -373 1 -382 9 -19 16 -21 728 -2 747 9 9
103 12 383 10 l370 -3 0 -380z"/>
<path d="M920 2585 l0 -265 270 0 270 0 0 265 0 265 -270 0 -270 0 0 -265z"/>
<path d="M3795 3185 c-237 -52 -413 -210 -490 -438 -54 -163 -42 -335 38 -497
58 -119 168 -230 287 -289 196 -96 410 -94 603 6 101 52 222 173 271 272 101
200 101 419 -1 614 -56 108 -174 223 -284 275 -138 67 -289 87 -424 57z m265
-182 c226 -61 375 -296 335 -528 -50 -283 -340 -464 -605 -375 -82 27 -121 51
-188 114 -103 97 -147 210 -140 365 4 80 9 107 35 161 70 152 201 251 366 279
60 10 120 6 197 -16z"/>
<path d="M3829 2892 c-74 -25 -142 -73 -184 -130 -39 -53 -75 -155 -75 -212 0
-90 64 -221 133 -274 114 -87 249 -105 367 -50 36 17 82 46 103 63 46 41 104
155 112 223 30 242 -227 455 -456 380z"/>
<path d="M2455 1795 c-212 -39 -387 -170 -479 -359 -211 -434 106 -939 589
-939 422 0 739 402 635 807 -66 260 -264 444 -530 492 -91 16 -124 16 -215 -1z
m-31 -405 l151 -149 151 149 c83 83 155 150 161 150 6 0 22 -9 37 -21 50 -39
39 -59 -119 -219 l-145 -146 145 -144 c152 -151 164 -172 128 -212 -36 -40
-60 -26 -213 127 l-144 145 -146 -145 c-160 -158 -180 -169 -219 -119 -12 15
-21 31 -21 37 0 6 67 78 150 161 l149 151 -149 151 c-83 83 -150 158 -150 168
0 9 11 28 25 41 13 14 32 25 41 25 10 0 85 -67 168 -150z"/>
</g>
</svg>
